PathFileType	4	(X/Y/Z)	path1_02_0-1346.trc
DataRate	CameraRate	NumFrames	NumMarkers	Units	OrigDataRate	OrigDataStartFrame	OrigNumFrames
30	30	6	22	m	30	336	1346
Frame#	Time	Hip			RHip			RKnee			RAnkle			RBigToe			RSmallToe			RHeel			LHip			LKnee			LAnkle			LBigToe			LSmallToe			LHeel			Neck			Head			Nose			RShoulder			RElbow			RWrist			LShoulder			LElbow			LWrist		
		X1	Y1	Z1	X2	Y2	Z2	X3	Y3	Z3	X4	Y4	Z4	X5	Y5	Z5	X6	Y6	Z6	X7	Y7	Z7	X8	Y8	Z8	X9	Y9	Z9	X10	Y10	Z10	X11	Y11	Z11	X12	Y12	Z12	X13	Y13	Z13	X14	Y14	Z14	X15	Y15	Z15	X16	Y16	Z16	X17	Y17	Z17	X18	Y18	Z18	X19	Y19	Z19	X20	Y20	Z20	X21	Y21	Z21	X22	Y22	Z22
337	11.233333333333333	-1.6541792554461676	0.8169201632540022	0.25118694502772576	-1.6600551018341658	0.7927195073588308	0.3340320270308464	-1.679936735808437	0.4657624348906724	0.3036578572792151	-1.704891980638845	0.11826307045023418	0.32076884953116	-1.5450792287841237	0.027911643175519002	0.3318329938667125	-1.5731282777956286	0.030336094666900366	0.39324352120934064	-1.7439148023492548	0.05711903552210681	0.3261387682459913	-1.6451445459490546	0.7869610919148428	0.1805337825087584	-1.647695629170822	0.4417673949137571	0.1778220923050806	-1.6834275285208462	0.10489505037515003	0.18053374161454117	-1.532660570623219	0.008209972476056527	0.13972511032422325	-1.5451043715749255	0.02480885046866253	0.09801196309445086	-1.7556779646064598	0.02996874503213242	0.17616025234283025	-1.6464278060323962	1.453833041208636	0.21085936164620192	-1.5877764819203104	1.7152280023101991	0.24447211314370285	-1.5159845817327071	1.5888444582131642	0.2395013681405527	-1.6974002399601797	1.355637389436747	0.35715707209355246	-1.6844572334083099	1.0581783158164069	0.38803553325751633	-1.5900029251972316	0.8608385886493164	0.4537129500464853	-1.6776292975909628	1.3307588205845975	0.11989601668337922	-1.6679029488844606	1.0373291022776854	0.1006352013127736	-1.5543668054404396	0.8573463079847761	0.06440821860452711
338	11.266666666666667	-1.6541752724140661	0.8167809490516827	0.25107490957675793	-1.6592213282743706	0.792973859778025	0.3345245528655472	-1.679916510567842	0.46605976302410335	0.3041390993841296	-1.7051277889440035	0.11795707427239958	0.3204753529366618	-1.5450532742959873	0.027994845493218956	0.33187923194431224	-1.573242559265284	0.029689292498655904	0.39402919433637085	-1.7441479428059774	0.05649626991171629	0.3258403458089666	-1.6450433283985229	0.7867650282026174	0.1807858126340601	-1.6487998258312873	0.44184068374758745	0.17847811479832038	-1.6835941016603932	0.10495847552228423	0.18071010703011234	-1.5329690205849185	0.008014579359299417	0.14096623183619472	-1.5461346179117663	0.02441218650862001	0.09737187145806762	-1.75598657413515	0.026990099009776773	0.1797013683658408	-1.6460255017627448	1.4539230196156196	0.21097992172294164	-1.5885680891559746	1.7173635876698026	0.24532915971005376	-1.5157974239922833	1.5883980587860267	0.23874039739637276	-1.697063109705263	1.3558031052134931	0.35711165206085094	-1.6841748828449195	1.0580470588764346	0.38798944754203146	-1.5897126312615266	0.8605353238569343	0.4536766868364657	-1.6771883848193343	1.3307295545263944	0.11981999137470074	-1.6677395880346102	1.0376000710722386	0.10073995898698132	-1.5542683861039976	0.8573300155084993	0.06446951992901608
339	11.3	-1.6543580256858597	0.8167141497497282	0.25084605025896894	-1.6585519846972783	0.7937341145191039	0.3349111328995714	-1.6798396080229672	0.4664986450204315	0.30457342228509443	-1.705370996113846	0.11757922100080306	0.3200866311641006	-1.5451292676069672	0.02820609568667158	0.3320853543256843	-1.5733802844818898	0.028968938070394284	0.39513122976613707	-1.744430268486978	0.055691122490552955	0.3252851442186078	-1.6447415295274406	0.7871573337988982	0.18083737401757835	-1.649971244308707	0.4424705414789827	0.17964594969096204	-1.6835250916505464	0.1049836257954124	0.18076754738669928	-1.5329432655420083	0.008099543674283012	0.14092883852660978	-1.546953096864347	0.024085051797812344	0.09657320943317527	-1.7562975226560351	0.02425103481248518	0.18299284100063426	-1.6458372409759423	1.4536604607272778	0.21111365015823327	-1.5875009838496859	1.718425434241781	0.24634572928080095	-1.515642251211505	1.5876262006358903	0.23773338070420877	-1.6969508325724239	1.3560516739232256	0.35700862546033385	-1.683960809914383	1.0580878004398764	0.3879782096672504	-1.589604873041071	0.8603025756967307	0.45366153352652167	-1.6764847431383498	1.330699458135403	0.11963396480394692	-1.667260278451599	1.0378984637258197	0.10075121215068548	-1.5541405875914327	0.8572784830548509	0.06438257939017421
340	11.333333333333334	-1.654607999909496	0.8166773099130747	0.2505638038290839	-1.658158641895096	0.7947049365297789	0.3351346255960605	-1.679692477300525	0.46696765133799506	0.30495058795787866	-1.7055163650235077	0.1172118735555898	0.31978451193454865	-1.545233132880333	0.02843829730121515	0.332401658858882	-1.5734627533432695	0.02829508561633157	0.39622476700416565	-1.744619482692506	0.055010917040406004	0.32473385561918594	-1.6443959470701772	0.7878373892711155	0.18076229699912366	-1.6511644119562459	0.44343416026519716	0.18125479382464135	-1.68321217314034	0.10489256519082923	0.18071119462595658	-1.5326656454877352	0.008349386246702785	0.13993821922394745	-1.5475833669542942	0.02379000614375128	0.09564023854978672	-1.756473269421113	0.02238081367577471	0.18519915094693898	-1.6458084956009493	1.4531549298199398	0.21128172749684127	-1.5855534357619705	1.7188234106669262	0.24721169896560038	-1.5154718493989652	1.5867786382082818	0.2366356469893033	-1.696929949911064	1.3563452548774062	0.3569041590997258	-1.6837968640820773	1.0582638383203926	0.3879530228654954	-1.5896713874777315	0.8602110379098422	0.45365479424324795	-1.6756653987907497	1.3306847700421789	0.11938459710288082	-1.6666140311146656	1.0381423539853079	0.10069188599561649	-1.5540481082912527	0.8572325496759317	0.06412625487912521
341	11.366666666666667	-1.6547768750623628	0.8166271703871477	0.2503133425974937	-1.6580163348682413	0.7955536591390197	0.3352045346468049	-1.679461666987829	0.46733612384112044	0.30523851941961017	-1.705527174754458	0.11694235180396549	0.31962679853050413	-1.5453269245468337	0.02858016580024825	0.3327439773362646	-1.5734825503676382	0.027929081159258566	0.3967924117895663	-1.7446441746408647	0.05463838463112961	0.3243959793251406	-1.6441167153727614	0.7884367048541318	0.1806708675629467	-1.6521302071707828	0.44433911801381265	0.18282841666178054	-1.6827090441228973	0.10470774384512636	0.18058129859680733	-1.5322845297761138	0.00859471019531506	0.1387519872538697	-1.5478734544169968	0.023563076547975022	0.0948527343893251	-1.7564526346271692	0.021580338637320957	0.1860445847822701	-1.6458180992314249	1.452619260288362	0.21148777570565072	-1.5836380948835838	1.7188199972364526	0.24784015338739213	-1.5152339788090619	1.5861252008137747	0.23577646366796	-1.6968666148989267	1.3566564537764343	0.3568360762797934	-1.683617101060279	1.05847281837514	0.3879029644898871	-1.5898473773052022	0.8602520695938024	0.45364234236569745	-1.6748890480175436	1.3306955491285937	0.11914692714467524	-1.6660090640465013	1.038255472960681	0.10058006290848957	-1.5540059389269514	0.8571958903040536	0.06374416525007277
342	11.4	-1.6548274800134912	0.8165538521964616	0.25014387409561506	-1.6580859185960437	0.7962213574930255	0.3351932220929282	-1.679195237769103	0.4676005381300675	0.30538347659649673	-1.705439069887181	0.11684390327538817	0.3195444077070042	-1.5454566756857027	0.028558770624769653	0.33303216185747536	-1.5735067798798226	0.027976171788523147	0.3965709868975224	-1.7445621148895554	0.05456163056805059	0.32433407303327	-1.6438676378334505	0.7888637289175742	0.18062347809953963	-1.652237251616033	0.4448632399671864	0.1835535887624031	-1.6820942780132793	0.10455469685542318	0.180441694827822	-1.5318355716773906	0.008767513839716773	0.13791810267985388	-1.5473909797719116	0.02355569024959175	0.09473748058962793	-1.7562641209218635	0.02174444199304378	0.18566471479391977	-1.645781171794865	1.4522020199166847	0.21170720455079897	-1.582205733331629	1.718648109845584	0.24840910577466405	-1.5149341935387985	1.5857946132451428	0.23542324870823306	-1.6967344257001984	1.3569846741378777	0.35681364431912405	-1.6834247686256352	1.05864294473586	0.38788664723869487	-1.5900576698178774	0.8603607601380121	0.4536305805466007	-1.6742131282960502	1.3307631812547835	0.1190014001597697	-1.6655406599509797	1.0382513118100234	0.10039774804260354	-1.5540068499512338	0.8571482335129511	0.06334772707913207
